<svg width="18" height="18" xmlns="http://www.w3.org/2000/svg">
    <g transform="translate(0 .415)" fill="none" fill-rule="evenodd">
        <rect width="20" height="20.308" rx="4"/>
        <path d="M4.305 7.264c.314-.45.969-.537 1.428-.225l.017.011c.45.306.57.897.267 1.338a3.78 3.78 0 0 0-.586 1.334c-.528 2.4 1.166 4.536 3.478 4.872.329.047.627-.2.627-.52v-.914c0-.228.274-.359.464-.22l3.161 2.294a.505.505 0 0 1 0 .826L10 18.348c-.191.137-.464.007-.464-.222v-.99c0-.28-.229-.496-.517-.519-3.231-.256-5.769-2.85-5.769-6.015 0-1.235.39-2.382 1.055-3.338zM10 1.96c.191-.137.464-.007.464.221v.992c0 .278.229.494.517.518 3.231.256 5.769 2.85 5.769 6.014 0 1.236-.39 2.383-1.055 3.339-.314.45-.969.537-1.428.225l-.017-.012a.954.954 0 0 1-.267-1.337 3.78 3.78 0 0 0 .586-1.334c.528-2.4-1.166-4.536-3.478-4.872-.329-.048-.627.2-.627.52v.914c0 .228-.274.358-.464.22L6.84 5.073a.505.505 0 0 1 0-.825z" fill="black" opacity=".702"/>
    </g>
</svg>
