<?xml version="1.0" encoding="utf-8"?>
<!-- Generator: Adobe Illustrator 26.1.0, SVG Export Plug-In . SVG Version: 6.00 Build 0)  -->
<svg version="1.1" id="Layer_1" xmlns="http://www.w3.org/2000/svg" xmlns:xlink="http://www.w3.org/1999/xlink" x="0px" y="0px"
	 width="94px" height="23px" viewBox="0 0 94 23" style="enable-background:new 0 0 94 23;" xml:space="preserve">
<style type="text/css">
	.st0{fill:#FFFFFF;}
</style>
<path class="st0" d="M9.7,13.7l2.9-3.5H9.2c-1.2,0-2.5,0.3-3.4,1.1l-0.3,0.3V0H2.2C1.4,0,0.8,0.7,0.8,1.5v21.5h3.4
	c0.8,0,1.5-0.7,1.5-1.5v-5.7l2.8,3.4l2.4,2.9c0.5,0.6,1.1,0.9,1.7,0.9h4.8l-3.1-3.8L9.7,13.7z M23.4,17.6v-7.4h-4.9v8.4
	c0,2.6,1.8,4.4,4.5,4.4h3.8c0.8,0,1.5-0.7,1.5-1.5v-2.6h-3.5C24,18.9,23.4,18.3,23.4,17.6z M29,7.5V4.3l-0.3,0.3
	c0,0-0.9,0.9-3.6,0.9h-1.7V0H20c-0.8,0-1.5,0.7-1.5,1.5v4.1h-5.8c-2,0-2.9,0.8-3.6,1.7l-2.9,3.5c0,0,1.3-1.3,3.3-1.3h15.5
	c1.7,0,2.9-0.3,3.5-1C29,8,29,7.5,29,7.5z"/>
<g>
	<g>
		<path class="st0" d="M36.1,16.2c0-2.2,0.6-3.9,1.7-5c1.1-1.1,2.7-1.7,4.6-1.7c1.4,0,2.4-0.1,2.8-0.3v1.8c0,0.3-0.2,0.5-0.7,0.6
			c-0.4,0.1-1.1,0.2-2,0.2c-2.6,0-4,1.5-4,4.5c0,1.5,0.3,2.7,0.9,3.5c0.6,0.8,1.5,1.2,2.6,1.2c1.4,0,2.5-0.2,3.5-0.7v1.6
			c0,0.4-0.2,0.7-0.6,0.8c-0.3,0.2-0.7,0.3-1.3,0.4C43.2,23,42.7,23,42.2,23C38.1,23,36.1,20.7,36.1,16.2z"/>
		<path class="st0" d="M48.9,22.2c-0.5-0.6-0.7-1.5-0.7-2.7V4.3c0-0.4,0.2-0.6,0.6-0.6h1.8v15.7c0,0.6,0.1,0.9,0.3,1.1
			c0.2,0.2,0.4,0.3,0.7,0.3c0.5,0,0.9-0.1,1.3-0.2V22c0,0.4-0.2,0.7-0.5,0.8c-0.4,0.1-0.8,0.2-1.2,0.2C50.1,23,49.4,22.7,48.9,22.2z
			"/>
		<path class="st0" d="M55.9,21.4c-1-1.1-1.4-2.8-1.4-5.2c0-4.6,1.9-6.9,5.7-6.9c3.8,0,5.7,2.3,5.7,6.9c0,2.4-0.5,4.1-1.5,5.2
			c-1,1.1-2.4,1.6-4.2,1.6C58.3,23,56.9,22.5,55.9,21.4z M62.5,19.7c0.5-0.7,0.8-1.9,0.8-3.6c0-1.7-0.3-2.9-0.8-3.6
			c-0.5-0.7-1.3-1.1-2.4-1.1c-1.1,0-1.9,0.4-2.4,1.1c-0.5,0.7-0.8,1.9-0.8,3.6c0,1.7,0.3,2.8,0.8,3.6c0.5,0.7,1.3,1.1,2.4,1.1
			C61.2,20.8,62,20.4,62.5,19.7z"/>
		<path class="st0" d="M69.8,21.9c-0.8-0.7-1.2-1.8-1.2-3.4V10c0-0.4,0.2-0.6,0.6-0.6h1.9v8.6c0,0.9,0.2,1.6,0.5,2.1
			c0.4,0.4,0.9,0.7,1.7,0.7c0.5,0,1-0.1,1.5-0.3c0.5-0.2,1-0.4,1.5-0.8v-7.4c0-1.1,0.1-1.9,0.2-2.3c0.1-0.4,0.4-0.6,0.7-0.6h1.9
			c-0.3,0.6-0.4,1.5-0.4,2.8v9.8c0,0.4-0.2,0.6-0.6,0.6h-1.8v-0.8c-0.5,0.3-1,0.6-1.6,0.8c-0.5,0.2-1.1,0.3-1.7,0.3
			C71.7,23,70.6,22.6,69.8,21.9z"/>
		<path class="st0" d="M83.2,21.4c-0.9-1.1-1.4-2.7-1.4-4.9c0-2.4,0.6-4.3,1.7-5.4c1.2-1.2,2.7-1.7,4.5-1.7c0.7,0,1.3,0.1,2,0.3V6.6
			c0-1.1,0.1-1.9,0.2-2.3c0.1-0.4,0.4-0.6,0.7-0.6h2c-0.3,0.5-0.4,1.5-0.4,2.8v15.6c0,0.4-0.2,0.6-0.6,0.6H90V22c-0.9,0.7-2,1-3.1,1
			C85.3,23,84.1,22.5,83.2,21.4z M88.8,20.5c0.5-0.2,0.9-0.4,1.2-0.7v-8c-0.6-0.2-1.2-0.3-1.8-0.3c-1.1,0-2.1,0.4-2.8,1.1
			c-0.7,0.8-1.1,2-1.1,3.8c0,1.5,0.3,2.6,0.8,3.3c0.5,0.7,1.3,1.1,2.3,1.1C87.8,20.8,88.3,20.7,88.8,20.5z"/>
	</g>
</g>
</svg>
