<svg xmlns="http://www.w3.org/2000/svg" width="14" height="16" viewBox="0 0 14 16">
  <defs>
    <style>
      .cls-1 {
        fill: #333336;
      }
    </style>
  </defs>
  <g id="레이어_2" data-name="레이어 2">
    <g id="LNB_Dashboard">
      <path class="cls-1" d="M13.53333,16H8.86667A.46837.46837,0,0,1,8.4,15.52941V10.35286H5.6v5.17655A.46837.46837,0,0,1,5.13333,16H.46667A.46837.46837,0,0,1,0,15.52941V5.17632A.47148.47148,0,0,1,.19551,4.7935L6.72884.08755a.4637.4637,0,0,1,.54232,0L13.80449,4.7935A.47148.47148,0,0,1,14,5.17632V15.52941A.46837.46837,0,0,1,13.53333,16Zm-4.2-.94119h3.73334V5.41851L7,1.0485l-6.06667,4.37v9.6403H4.66667V9.88227a.46837.46837,0,0,1,.46666-.4706H8.86667a.46837.46837,0,0,1,.46666.4706Z"/>
    </g>
  </g>
</svg>
