<svg xmlns="http://www.w3.org/2000/svg" width="16" height="16" viewBox="0 0 16 16">
  <defs>
    <style>
      .cls-1 {
        fill: #333336;
      }
    </style>
  </defs>
  <g id="레이어_2" data-name="레이어 2">
    <g id="LNB_Server">
      <g>
        <path class="cls-1" d="M13.64706,14.11765H2.35294a.47032.47032,0,0,1-.47059-.47059V2.35294a.47032.47032,0,0,1,.47059-.47059H13.64706a.47032.47032,0,0,1,.47059.47059V13.64706A.47032.47032,0,0,1,13.64706,14.11765ZM2.82353,13.17647H13.17647V2.82353H2.82353Z"/>
        <path class="cls-1" d="M8,2.82353a.47032.47032,0,0,1-.47059-.47059V.47059a.47059.47059,0,0,1,.94118,0V2.35294A.47032.47032,0,0,1,8,2.82353Z"/>
        <path class="cls-1" d="M11.76471,2.82353a.47032.47032,0,0,1-.47059-.47059V.47059a.47059.47059,0,1,1,.94117,0V2.35294A.47031.47031,0,0,1,11.76471,2.82353Z"/>
        <path class="cls-1" d="M4.23529,2.82353a.47031.47031,0,0,1-.47058-.47059V.47059a.47059.47059,0,1,1,.94117,0V2.35294A.47032.47032,0,0,1,4.23529,2.82353Z"/>
        <path class="cls-1" d="M8,16a.47032.47032,0,0,1-.47059-.47059V13.64706a.47059.47059,0,0,1,.94118,0v1.88235A.47032.47032,0,0,1,8,16Z"/>
        <path class="cls-1" d="M11.76471,16a.47032.47032,0,0,1-.47059-.47059V13.64706a.47059.47059,0,1,1,.94117,0v1.88235A.47031.47031,0,0,1,11.76471,16Z"/>
        <path class="cls-1" d="M4.23529,16a.47031.47031,0,0,1-.47058-.47059V13.64706a.47059.47059,0,1,1,.94117,0v1.88235A.47032.47032,0,0,1,4.23529,16Z"/>
        <path class="cls-1" d="M2.35294,8.47059H.47059a.47059.47059,0,0,1,0-.94118H2.35294a.47059.47059,0,0,1,0,.94118Z"/>
        <path class="cls-1" d="M2.35294,4.70588H.47059a.47059.47059,0,1,1,0-.94117H2.35294a.47059.47059,0,1,1,0,.94117Z"/>
        <path class="cls-1" d="M2.35294,12.23529H.47059a.47059.47059,0,1,1,0-.94117H2.35294a.47059.47059,0,1,1,0,.94117Z"/>
        <path class="cls-1" d="M15.52941,8.47059H13.64706a.47059.47059,0,0,1,0-.94118h1.88235a.47059.47059,0,0,1,0,.94118Z"/>
        <path class="cls-1" d="M15.52941,4.70588H13.64706a.47059.47059,0,1,1,0-.94117h1.88235a.47059.47059,0,1,1,0,.94117Z"/>
        <path class="cls-1" d="M15.52941,12.23529H13.64706a.47059.47059,0,1,1,0-.94117h1.88235a.47059.47059,0,1,1,0,.94117Z"/>
      </g>
    </g>
  </g>
</svg>
