<svg xmlns="http://www.w3.org/2000/svg" width="16" height="16" viewBox="0 0 16 16">
  <defs>
    <style>
      .cls-1 {
        fill: #333336;
      }
    </style>
  </defs>
  <g id="레이어_2" data-name="레이어 2">
    <g id="LNB_DBaaS">
      <g>
        <g>
          <path class="cls-1" d="M8,16c-2.62684,0-5.65533-.75724-6.09743-2.41952a.60357.60357,0,0,1-.02022-.15458V2.77856a.50547.50547,0,0,1,.47059-.53477.50547.50547,0,0,1,.47059.53477V13.33085C3.09789,14.00558,5.02711,14.93046,8,14.93046s4.90211-.92488,5.17647-1.59961V2.77856a.47444.47444,0,1,1,.94118,0V13.4259a.60357.60357,0,0,1-.02022.15458C13.65533,15.24276,10.62684,16,8,16Z"/>
          <path class="cls-1" d="M8,5.6002c-3.04,0-6.11765-.96927-6.11765-2.82164,0-3.70475,12.2353-3.70475,12.2353,0C14.11765,4.63093,11.04,5.6002,8,5.6002ZM8,1.02645c-3.15993,0-5.17647,1.03769-5.17647,1.75211S4.84007,4.53066,8,4.53066s5.17647-1.03769,5.17647-1.7521S11.15993,1.02645,8,1.02645Z"/>
        </g>
        <path class="cls-1" d="M8,11.654c-3.85294,0-8-.91652-8-2.9287,0-.86064.744-1.56461,2.21094-2.09312a.46117.46117,0,0,1,.59053.34834.5513.5513,0,0,1-.30653.67107c-1.1397.411-1.55376.86691-1.55376,1.07371,0,.63087,2.49172,1.85916,7.05882,1.85916s7.05882-1.22829,7.05882-1.85916c0-.2068-.41406-.66271-1.55376-1.07371a.5513.5513,0,0,1-.30653-.67107.46084.46084,0,0,1,.59053-.34834C15.256,7.16064,16,7.86461,16,8.72525,16,10.73743,11.85294,11.654,8,11.654Z"/>
      </g>
    </g>
  </g>
</svg>
