<svg xmlns="http://www.w3.org/2000/svg" width="16" height="16" viewBox="0 0 16 16">
  <defs>
    <style>
      .cls-1 {
        fill: #333336;
      }
    </style>
  </defs>
  <g id="레이어_2" data-name="레이어 2">
    <g id="LNB_LoadBalancer">
      <g>
        <path class="cls-1" d="M11.76471,8.47059H4.23529A.47031.47031,0,0,1,3.76471,8V.47059A.47031.47031,0,0,1,4.23529,0h7.52942a.47031.47031,0,0,1,.47058.47059V8A.47031.47031,0,0,1,11.76471,8.47059ZM4.70588,7.52941h6.58824V.94118H4.70588Z"/>
        <path class="cls-1" d="M4.23529,16H.47059A.47032.47032,0,0,1,0,15.52941v-3.7647a.47032.47032,0,0,1,.47059-.47059h3.7647a.47032.47032,0,0,1,.47059.47059v3.7647A.47032.47032,0,0,1,4.23529,16ZM.94118,15.05882H3.76471V12.23529H.94118Z"/>
        <path class="cls-1" d="M9.88235,16H6.11765a.47032.47032,0,0,1-.47059-.47059v-3.7647a.47032.47032,0,0,1,.47059-.47059h3.7647a.47032.47032,0,0,1,.47059.47059v3.7647A.47032.47032,0,0,1,9.88235,16Zm-3.29411-.94118H9.41176V12.23529H6.58824Z"/>
        <path class="cls-1" d="M15.52941,16h-3.7647a.47032.47032,0,0,1-.47059-.47059v-3.7647a.47032.47032,0,0,1,.47059-.47059h3.7647A.47032.47032,0,0,1,16,11.76471v3.7647A.47032.47032,0,0,1,15.52941,16Zm-3.29412-.94118h2.82353V12.23529H12.23529Z"/>
        <path class="cls-1" d="M13.64706,12.23529a.47031.47031,0,0,1-.47059-.47058V10.35294H2.82353v1.41177a.47059.47059,0,0,1-.94118,0V9.88235a.47032.47032,0,0,1,.47059-.47059H13.64706a.47032.47032,0,0,1,.47059.47059v1.88236A.47031.47031,0,0,1,13.64706,12.23529Z"/>
        <path class="cls-1" d="M8,12.23529a.47031.47031,0,0,1-.47059-.47058V8a.47059.47059,0,0,1,.94118,0v3.76471A.47031.47031,0,0,1,8,12.23529Z"/>
      </g>
    </g>
  </g>
</svg>
